{"accessors" : [{"bufferView" : 0, "byteOffset" : 0, "componentType" : 5123, "count" : 66, "type" : "SCALAR", "max" : [60], "min" : [0]}, {"bufferView" : 1, "byteOffset" : 0, "componentType" : 5126, "count" : 61, "type" : "VEC3", "max" : [8.450004577636719, 5.054883003234863, 7.8533525466918945], "min" : [-8.24686336517334, -12.037786483764648, -9.06495475769043], "name" : "POSITION"}, {"bufferView" : 1, "byteOffset" : 12, "componentType" : 5126, "count" : 61, "type" : "VEC3", "max" : [0.9657436609268188, 0.7863951921463013, 0.8420242071151733], "min" : [-0.9463063478469849, -0.952144980430603, -0.8354374170303345], "name" : "NORMAL"}, {"bufferView" : 1, "byteOffset" : 24, "componentType" : 5126, "count" : 61, "type" : "VEC2", "max" : [0.9900000095367432, 1], "min" : [7.450580596923828E-08, 0.009999990463256836], "name" : "TEXCOORD_0"}, {"bufferView" : 0, "byteOffset" : 132, "componentType" : 5123, "count" : 72, "type" : "SCALAR", "max" : [59], "min" : [0]}, {"bufferView" : 2, "byteOffset" : 0, "componentType" : 5126, "count" : 60, "type" : "VEC3", "max" : [5.273891448974609, 0.13819122314453125, 2.3382205963134766], "min" : [-0.4081498384475708, -2.7274651527404785, -3.237819194793701], "name" : "POSITION"}, {"bufferView" : 2, "byteOffset" : 12, "componentType" : 5126, "count" : 60, "type" : "VEC3", "max" : [0.9940077662467957, 0.4896014928817749, 0.979865312576294], "min" : [-0.9885671138763428, -0.6897398829460144, -0.9798719882965088], "name" : "NORMAL"}, {"bufferView" : 2, "byteOffset" : 24, "componentType" : 5126, "count" : 60, "type" : "VEC2", "max" : [1, 0.5], "min" : [7.450580596923828E-08, 0.5], "name" : "TEXCOORD_0"}, {"bufferView" : 0, "byteOffset" : 276, "componentType" : 5123, "count" : 216, "type" : "SCALAR", "max" : [170], "min" : [0]}, {"bufferView" : 3, "byteOffset" : 0, "componentType" : 5126, "count" : 171, "type" : "VEC3", "max" : [11.282516479492188, 0.046845436096191406, 5.1964192390441895], "min" : [7.384180068969727, -13.505297660827637, -7.020397663116455], "name" : "POSITION"}, {"bufferView" : 3, "byteOffset" : 12, "componentType" : 5126, "count" : 171, "type" : "VEC3", "max" : [0.21129025518894196, 0.9763105511665344, 0.9656696319580078], "min" : [-0.9774147868156433, -0.9766557216644287, -0.9891591668128967], "name" : "NORMAL"}, {"bufferView" : 3, "byteOffset" : 24, "componentType" : 5126, "count" : 171, "type" : "VEC2", "max" : [1, 1], "min" : [0, 0], "name" : "TEXCOORD_0"}, {"bufferView" : 0, "byteOffset" : 708, "componentType" : 5123, "count" : 216, "type" : "SCALAR", "max" : [178], "min" : [0]}, {"bufferView" : 4, "byteOffset" : 0, "componentType" : 5126, "count" : 179, "type" : "VEC3", "max" : [10.267766952514648, -0.1726241111755371, 5.196419715881348], "min" : [6.42586088180542, -13.712562561035156, -7.020397663116455], "name" : "POSITION"}, {"bufferView" : 4, "byteOffset" : 12, "componentType" : 5126, "count" : 179, "type" : "VEC3", "max" : [0.9774135947227478, 0.9762991666793823, 0.9656676054000854], "min" : [-0.2111891359090805, -0.9766722917556763, -0.9891574382781982], "name" : "NORMAL"}, {"bufferView" : 4, "byteOffset" : 24, "componentType" : 5126, "count" : 179, "type" : "VEC2", "max" : [1, 1], "min" : [0, 0], "name" : "TEXCOORD_0"}, {"bufferView" : 0, "byteOffset" : 1140, "componentType" : 5123, "count" : 432, "type" : "SCALAR", "max" : [347], "min" : [0]}, {"bufferView" : 5, "byteOffset" : 0, "componentType" : 5126, "count" : 348, "type" : "VEC3", "max" : [0.253098726272583, 1.641648292541504, 1.9246571063995361], "min" : [-0.22744633257389069, -1.6457557678222656, -2.893430471420288], "name" : "POSITION"}, {"bufferView" : 5, "byteOffset" : 12, "componentType" : 5126, "count" : 348, "type" : "VEC3", "max" : [1.0000044107437134, 1.0000044107437134, 1.0000044107437134], "min" : [-1.0000044107437134, -1.0000044107437134, -1.0000044107437134], "name" : "NORMAL"}, {"bufferView" : 5, "byteOffset" : 24, "componentType" : 5126, "count" : 348, "type" : "VEC2", "max" : [0.875, 1], "min" : [0.125, 0], "name" : "TEXCOORD_0"}, {"bufferView" : 0, "byteOffset" : 2004, "componentType" : 5123, "count" : 216, "type" : "SCALAR", "max" : [179], "min" : [0]}, {"bufferView" : 6, "byteOffset" : 0, "componentType" : 5126, "count" : 180, "type" : "VEC3", "max" : [8.450004577636719, 5.054883003234863, 7.8533525466918945], "min" : [-8.24686336517334, -12.037786483764648, -9.06495475769043], "name" : "POSITION"}, {"bufferView" : 6, "byteOffset" : 12, "componentType" : 5126, "count" : 180, "type" : "VEC3", "max" : [0.9940075874328613, 0.786375105381012, 0.9798657298088074], "min" : [-0.9885700345039368, -0.8136199712753296, -0.9798750877380371], "name" : "NORMAL"}, {"bufferView" : 6, "byteOffset" : 24, "componentType" : 5126, "count" : 180, "type" : "VEC2", "max" : [1, 1], "min" : [7.450580596923828E-08, 0.5], "name" : "TEXCOORD_0"}, {"bufferView" : 0, "byteOffset" : 2436, "componentType" : 5123, "count" : 252, "type" : "SCALAR", "max" : [209], "min" : [0]}, {"bufferView" : 7, "byteOffset" : 0, "componentType" : 5126, "count" : 210, "type" : "VEC3", "max" : [0.5746486186981201, 1.4600000381469727, 0.8783938884735107], "min" : [-2.0386645793914795, -1.4975465536117554, -1.3933742046356201], "name" : "POSITION"}, {"bufferView" : 7, "byteOffset" : 12, "componentType" : 5126, "count" : 210, "type" : "VEC3", "max" : [0.9921233057975769, 0.9903586506843567, 0.9861595034599304], "min" : [-0.9921231865882874, -0.990358293056488, -0.9861596822738647], "name" : "NORMAL"}, {"bufferView" : 7, "byteOffset" : 24, "componentType" : 5126, "count" : 210, "type" : "VEC2", "max" : [1, 1], "min" : [0, 0.009999990463256836], "name" : "TEXCOORD_0"}, {"bufferView" : 0, "byteOffset" : 2940, "componentType" : 5123, "count" : 34104, "type" : "SCALAR", "max" : [27241], "min" : [0]}, {"bufferView" : 8, "byteOffset" : 0, "componentType" : 5126, "count" : 27242, "type" : "VEC3", "max" : [0.9566361904144287, 2.4846653938293457, 2.0846681594848633], "min" : [-3.3829922676086426, -0.10563808679580688, -2.6483163833618164], "name" : "POSITION"}, {"bufferView" : 8, "byteOffset" : 12, "componentType" : 5126, "count" : 27242, "type" : "VEC3", "max" : [0.9993208646774292, 0.9999534487724304, 0.9998000860214233], "min" : [-0.9993903040885925, -0.9999468326568604, -0.9994715452194214], "name" : "NORMAL"}, {"bufferView" : 8, "byteOffset" : 24, "componentType" : 5126, "count" : 27242, "type" : "VEC2", "max" : [0.49000000953674316, 0.49000000953674316], "min" : [0.01000000536441803, 0.009999990463256836], "name" : "TEXCOORD_0"}, {"bufferView" : 0, "byteOffset" : 71148, "componentType" : 5123, "count" : 1470, "type" : "SCALAR", "max" : [1245], "min" : [0]}, {"bufferView" : 9, "byteOffset" : 0, "componentType" : 5126, "count" : 1246, "type" : "VEC3", "max" : [0.3946893811225891, 1.7293591499328613, 1.3191615343093872], "min" : [-2.4444093704223633, -0.0018088817596435547, -1.824591875076294], "name" : "POSITION"}, {"bufferView" : 9, "byteOffset" : 12, "componentType" : 5126, "count" : 1246, "type" : "VEC3", "max" : [0.9918577671051025, 0.9984493255615234, 0.996571958065033], "min" : [-0.9991265535354614, -1.0000044107437134, -0.9952754974365234], "name" : "NORMAL"}, {"bufferView" : 9, "byteOffset" : 24, "componentType" : 5126, "count" : 1246, "type" : "VEC2", "max" : [1, 0.5], "min" : [0, 0], "name" : "TEXCOORD_0"}], "asset" : {"generator" : "Aspose.3D 21.9", "version" : "2.0"}, "buffers" : [{"uri" : "data:application/octet-stream;base64,", "byteLength" : 1259536}], "bufferViews" : [{"buffer" : 0, "byteOffset" : 0, "byteLength" : 74088, "target" : 34963}, {"buffer" : 0, "byteOffset" : 74092, "byteLength" : 2112, "byteStride" : 32, "target" : 34962}, {"buffer" : 0, "byteOffset" : 76208, "byteLength" : 2304, "byteStride" : 32, "target" : 34962}, {"buffer" : 0, "byteOffset" : 78516, "byteLength" : 6912, "byteStride" : 32, "target" : 34962}, {"buffer" : 0, "byteOffset" : 85432, "byteLength" : 6912, "byteStride" : 32, "target" : 34962}, {"buffer" : 0, "byteOffset" : 92348, "byteLength" : 13824, "byteStride" : 32, "target" : 34962}, {"buffer" : 0, "byteOffset" : 106176, "byteLength" : 6912, "byteStride" : 32, "target" : 34962}, {"buffer" : 0, "byteOffset" : 113092, "byteLength" : 8064, "byteStride" : 32, "target" : 34962}, {"buffer" : 0, "byteOffset" : 121160, "byteLength" : 1091328, "byteStride" : 32, "target" : 34962}, {"buffer" : 0, "byteOffset" : 1212492, "byteLength" : 47040, "byteStride" : 32, "target" : 34962}], "materials" : [{"name" : "Material.005", "pbrMetallicRoughness" : {"baseColorFactor" : [0.10223899781703949, 0.014185399748384953, 0.0035604299046099186, 1], "metallicFactor" : 0, "roughnessFactor" : 0.5119519829750061}, "emissiveFactor" : [0, 0, 0], "alphaMode" : "OPAQUE", "doubleSided" : true}, {"name" : "Material.006", "pbrMetallicRoughness" : {"baseColorFactor" : [0.23699000477790833, 0.0026251899544149637, 0, 1], "metallicFactor" : 0, "roughnessFactor" : 0.5}, "emissiveFactor" : [0, 0, 0], "alphaMode" : "OPAQUE", "doubleSided" : true}, {"name" : "Material.009", "pbrMetallicRoughness" : {"baseColorFactor" : [0.10879000276327133, 0.0013670000480487943, 0, 1], "metallicFactor" : 0, "roughnessFactor" : 0.5}, "emissiveFactor" : [0, 0, 0], "alphaMode" : "OPAQUE", "doubleSided" : true}, {"name" : "Material.010", "pbrMetallicRoughness" : {"baseColorFactor" : [0.7991030216217041, 0.25015801191329956, 0.06480330228805542, 1], "metallicFactor" : 0, "roughnessFactor" : 1}, "emissiveFactor" : [0, 0, 0], "alphaMode" : "OPAQUE", "doubleSided" : true}, {"name" : "Material.007", "pbrMetallicRoughness" : {"baseColorFactor" : [0.19243499636650085, 0.0017709999810904264, 0, 1], "metallicFactor" : 0, "roughnessFactor" : 0.5}, "emissiveFactor" : [0, 0, 0], "alphaMode" : "OPAQUE", "doubleSided" : true}, {"name" : "Material.004", "pbrMetallicRoughness" : {"baseColorFactor" : [0.800000011920929, 0.27788999676704407, 0.09457849711179733, 1], "metallicFactor" : 0, "roughnessFactor" : 0.5}, "emissiveFactor" : [0, 0, 0], "alphaMode" : "OPAQUE", "doubleSided" : true}, {"name" : "Material.003", "pbrMetallicRoughness" : {"baseColorFactor" : [0.011821799911558628, 0.09905160218477249, 0, 1], "metallicFactor" : 0, "roughnessFactor" : 0.5}, "emissiveFactor" : [0, 0, 0], "alphaMode" : "OPAQUE", "doubleSided" : true}, {"name" : "Material.001", "pbrMetallicRoughness" : {"baseColorFactor" : [0.3049820065498352, 0.0015963900368660688, 0, 1], "metallicFactor" : 0, "roughnessFactor" : 0.6593629717826843}, "emissiveFactor" : [0, 0, 0], "alphaMode" : "OPAQUE", "doubleSided" : true}, {"name" : "Material.002", "pbrMetallicRoughness" : {"baseColorFactor" : [0.005691200029104948, 0.11558099836111069, 0, 1], "metallicFactor" : 0, "roughnessFactor" : 0.5}, "emissiveFactor" : [0, 0, 0], "alphaMode" : "OPAQUE", "doubleSided" : true}], "meshes" : [{"primitives" : [{"attributes" : {"POSITION" : 1, "NORMAL" : 2, "TEXCOORD_0" : 3}, "indices" : 0, "material" : 0, "mode" : 4}]}, {"primitives" : [{"attributes" : {"POSITION" : 5, "NORMAL" : 6, "TEXCOORD_0" : 7}, "indices" : 4, "material" : 1, "mode" : 4}]}, {"primitives" : [{"attributes" : {"POSITION" : 9, "NORMAL" : 10, "TEXCOORD_0" : 11}, "indices" : 8, "material" : 2, "mode" : 4}]}, {"primitives" : [{"attributes" : {"POSITION" : 13, "NORMAL" : 14, "TEXCOORD_0" : 15}, "indices" : 12, "material" : 3, "mode" : 4}]}, {"primitives" : [{"attributes" : {"POSITION" : 17, "NORMAL" : 18, "TEXCOORD_0" : 19}, "indices" : 16, "material" : 4, "mode" : 4}]}, {"primitives" : [{"attributes" : {"POSITION" : 21, "NORMAL" : 22, "TEXCOORD_0" : 23}, "indices" : 20, "material" : 5, "mode" : 4}]}, {"primitives" : [{"attributes" : {"POSITION" : 25, "NORMAL" : 26, "TEXCOORD_0" : 27}, "indices" : 24, "material" : 6, "mode" : 4}]}, {"primitives" : [{"attributes" : {"POSITION" : 29, "NORMAL" : 30, "TEXCOORD_0" : 31}, "indices" : 28, "material" : 7, "mode" : 4}]}, {"primitives" : [{"attributes" : {"POSITION" : 33, "NORMAL" : 34, "TEXCOORD_0" : 35}, "indices" : 32, "material" : 8, "mode" : 4}]}], "nodes" : [{"mesh" : 0, "name" : "Object_10"}, {"mesh" : 1, "name" : "Object_11"}, {"mesh" : 2, "name" : "Object_12"}, {"mesh" : 3, "name" : "Object_13"}, {"mesh" : 4, "name" : "Object_8"}, {"mesh" : 5, "name" : "Object_9"}, {"children" : [0, 1, 2, 3, 4, 5], "matrix" : [0.030143985165644635, -0.1971058004796187, 0.030143906914405917, 0, -0.13937503301059953, -0.042629953761113094, -0.1393747250414995, 0, -0.14259723879625988, 5.313640887939776E-09, 0.1425975715929128, 0, -0.3273712992668152, 1.6426156759262085, -0.5635656118392944, 1], "name" : "Cube.001_3"}, {"mesh" : 6, "name" : "Object_4"}, {"mesh" : 7, "name" : "Object_5"}, {"mesh" : 8, "name" : "Object_6"}, {"children" : [7, 8, 9], "matrix" : [-0.6000944820953125, 0.528937003578041, -0.6000940029162996, 0, 0.3740149880819912, 0.8486611211782699, 0.3740148960190597, 0, 0.7071067492113565, 5.9280918840443064E-08, -0.7071072307442847, 0, 0.2760917544364929, 1.9370325803756714, -0.4223440885543823, 1], "name" : "Cylinder.010_2"}, {"children" : [6, 10], "matrix" : [1, 0, 0, 0, 0, -1.3435885648505064E-07, 1.0000001343588565, 0, 0, -1.0000001343588565, -1.3435885648505064E-07, 0, 0, 0, 0, 1], "name" : "GLTF_SceneRootNode"}, {"children" : [11], "name" : "root"}, {"children" : [12], "matrix" : [1, 0, 0, 0, 0, -1.3435885648505064E-07, -1.0000001343588565, 0, 0, 1.0000001343588565, -1.3435885648505064E-07, 0, 0, 0, 0, 1], "name" : "Sketchfab_model"}], "scene" : 0, "scenes" : [{"nodes" : [13]}]}